<mxfile host="app.diagrams.net" agent="Mozilla/5.0 (Macintosh; Intel Mac OS X 10_15_7) AppleWebKit/537.36 (KHTML, like Gecko) Chrome/137.0.0.0 Safari/537.36 Edg/137.0.0.0" version="28.0.6">
  <diagram name="第 1 页" id="cGq4axQqVIUnz58E_oB1">
    <mxGraphModel dx="408" dy="554" grid="0" gridSize="10" guides="1" tooltips="1" connect="1" arrows="1" fold="1" page="0" pageScale="1" pageWidth="827" pageHeight="1169" math="0" shadow="0">
      <root>
        <mxCell id="0" />
        <mxCell id="1" parent="0" />
        <mxCell id="TcbJo_jmiR2zdpB2woHX-352" value="" style="rounded=1;whiteSpace=wrap;html=1;fillColor=#f5f5f5;strokeColor=#666666;fontColor=#333333;" vertex="1" parent="1">
          <mxGeometry x="1583" y="200" width="316" height="478" as="geometry" />
        </mxCell>
        <mxCell id="TcbJo_jmiR2zdpB2woHX-271" value="&lt;font style=&quot;font-size: 14px;&quot;&gt;&lt;b&gt;计算算子&lt;/b&gt;&lt;/font&gt;" style="rounded=1;whiteSpace=wrap;html=1;fillColor=#f8cecc;strokeColor=#b85450;" vertex="1" parent="1">
          <mxGeometry x="1048" y="118" width="120" height="60" as="geometry" />
        </mxCell>
        <mxCell id="TcbJo_jmiR2zdpB2woHX-272" style="edgeStyle=orthogonalEdgeStyle;rounded=0;orthogonalLoop=1;jettySize=auto;html=1;entryX=0;entryY=0.5;entryDx=0;entryDy=0;" edge="1" parent="1" source="TcbJo_jmiR2zdpB2woHX-286" target="TcbJo_jmiR2zdpB2woHX-301">
          <mxGeometry relative="1" as="geometry" />
        </mxCell>
        <mxCell id="TcbJo_jmiR2zdpB2woHX-273" style="edgeStyle=orthogonalEdgeStyle;rounded=0;orthogonalLoop=1;jettySize=auto;html=1;entryX=0;entryY=0.5;entryDx=0;entryDy=0;" edge="1" parent="1" source="TcbJo_jmiR2zdpB2woHX-301" target="TcbJo_jmiR2zdpB2woHX-271">
          <mxGeometry relative="1" as="geometry">
            <Array as="points">
              <mxPoint x="1007" y="271" />
              <mxPoint x="1007" y="148" />
            </Array>
          </mxGeometry>
        </mxCell>
        <mxCell id="TcbJo_jmiR2zdpB2woHX-274" style="edgeStyle=orthogonalEdgeStyle;rounded=0;orthogonalLoop=1;jettySize=auto;html=1;entryX=0.003;entryY=0.455;entryDx=0;entryDy=0;entryPerimeter=0;" edge="1" parent="1" source="TcbJo_jmiR2zdpB2woHX-271" target="TcbJo_jmiR2zdpB2woHX-291">
          <mxGeometry relative="1" as="geometry" />
        </mxCell>
        <mxCell id="TcbJo_jmiR2zdpB2woHX-275" style="edgeStyle=orthogonalEdgeStyle;rounded=0;orthogonalLoop=1;jettySize=auto;html=1;entryX=0;entryY=0.5;entryDx=0;entryDy=0;" edge="1" parent="1" source="TcbJo_jmiR2zdpB2woHX-277" target="TcbJo_jmiR2zdpB2woHX-314">
          <mxGeometry relative="1" as="geometry" />
        </mxCell>
        <mxCell id="TcbJo_jmiR2zdpB2woHX-277" value="&lt;font style=&quot;font-size: 14px;&quot;&gt;&lt;b&gt;view-like 算子&lt;/b&gt;&lt;/font&gt;" style="rounded=1;whiteSpace=wrap;html=1;fillColor=#e1d5e7;strokeColor=#9673a6;" vertex="1" parent="1">
          <mxGeometry x="1047" y="417.4" width="120" height="60" as="geometry" />
        </mxCell>
        <mxCell id="TcbJo_jmiR2zdpB2woHX-278" style="edgeStyle=orthogonalEdgeStyle;rounded=0;orthogonalLoop=1;jettySize=auto;html=1;entryX=0;entryY=0.5;entryDx=0;entryDy=0;" edge="1" parent="1" source="TcbJo_jmiR2zdpB2woHX-301" target="TcbJo_jmiR2zdpB2woHX-277">
          <mxGeometry relative="1" as="geometry" />
        </mxCell>
        <mxCell id="TcbJo_jmiR2zdpB2woHX-279" style="edgeStyle=orthogonalEdgeStyle;rounded=0;orthogonalLoop=1;jettySize=auto;html=1;entryX=0.5;entryY=0;entryDx=0;entryDy=0;exitX=1;exitY=0.5;exitDx=0;exitDy=0;" edge="1" parent="1" target="TcbJo_jmiR2zdpB2woHX-311">
          <mxGeometry relative="1" as="geometry">
            <mxPoint x="1641" y="447.4000000000001" as="sourcePoint" />
            <mxPoint x="1838.75" y="285.4" as="targetPoint" />
            <Array as="points">
              <mxPoint x="1634" y="447" />
              <mxPoint x="1634" y="285" />
              <mxPoint x="1807" y="285" />
            </Array>
          </mxGeometry>
        </mxCell>
        <mxCell id="TcbJo_jmiR2zdpB2woHX-280" value="&lt;span style=&quot;color: rgba(0, 0, 0, 0); font-family: monospace; font-size: 0px; text-align: start; background-color: rgb(236, 236, 236);&quot;&gt;%3CmxGraphModel%3E%3Croot%3E%3CmxCell%20id%3D%220%22%2F%3E%3CmxCell%20id%3D%221%22%20parent%3D%220%22%2F%3E%3CmxCell%20id%3D%222%22%20value%3D%22%26lt%3Bspan%20style%3D%26quot%3Bfont-size%3A%2013px%3B%26quot%3B%26gt%3Bfast_path%26lt%3B%2Fspan%26gt%3B%22%20style%3D%22edgeLabel%3Bhtml%3D1%3Balign%3Dcenter%3BverticalAlign%3Dmiddle%3Bresizable%3D0%3Bpoints%3D%5B%5D%3BfontStyle%3D3%3BfontColor%3D%23FF3333%3B%22%20vertex%3D%221%22%20connectable%3D%220%22%20parent%3D%221%22%3E%3CmxGeometry%20x%3D%221479%22%20y%3D%22609%22%20as%3D%22geometry%22%2F%3E%3C%2FmxCell%3E%3C%2Froot%3E%3C%2FmxGraphModel%3E&lt;/span&gt;" style="edgeLabel;html=1;align=center;verticalAlign=middle;resizable=0;points=[];" vertex="1" connectable="0" parent="TcbJo_jmiR2zdpB2woHX-279">
          <mxGeometry x="0.0169" y="-1" relative="1" as="geometry">
            <mxPoint as="offset" />
          </mxGeometry>
        </mxCell>
        <mxCell id="TcbJo_jmiR2zdpB2woHX-321" value="&lt;span style=&quot;color: rgb(255, 51, 51); font-size: 13px; font-style: italic; font-weight: 700;&quot;&gt;fast_path&lt;/span&gt;" style="edgeLabel;html=1;align=center;verticalAlign=middle;resizable=0;points=[];" vertex="1" connectable="0" parent="TcbJo_jmiR2zdpB2woHX-279">
          <mxGeometry x="0.0622" y="2" relative="1" as="geometry">
            <mxPoint x="-8" y="2" as="offset" />
          </mxGeometry>
        </mxCell>
        <mxCell id="TcbJo_jmiR2zdpB2woHX-333" style="edgeStyle=orthogonalEdgeStyle;rounded=0;orthogonalLoop=1;jettySize=auto;html=1;entryX=0.5;entryY=1;entryDx=0;entryDy=0;exitX=1;exitY=0.5;exitDx=0;exitDy=0;" edge="1" parent="1" source="TcbJo_jmiR2zdpB2woHX-283" target="TcbJo_jmiR2zdpB2woHX-311">
          <mxGeometry relative="1" as="geometry">
            <mxPoint x="1689" y="447.4000000000001" as="sourcePoint" />
            <mxPoint x="1886" y="633.4000000000001" as="targetPoint" />
            <Array as="points">
              <mxPoint x="1545" y="447" />
              <mxPoint x="1635" y="447" />
              <mxPoint x="1635" y="633" />
              <mxPoint x="1807" y="633" />
            </Array>
          </mxGeometry>
        </mxCell>
        <mxCell id="TcbJo_jmiR2zdpB2woHX-350" value="&lt;b style=&quot;color: rgb(255, 51, 51); font-size: 13px;&quot;&gt;&lt;i&gt;general copy&lt;/i&gt;&lt;/b&gt;" style="edgeLabel;html=1;align=center;verticalAlign=middle;resizable=0;points=[];" vertex="1" connectable="0" parent="TcbJo_jmiR2zdpB2woHX-333">
          <mxGeometry x="0.1715" relative="1" as="geometry">
            <mxPoint as="offset" />
          </mxGeometry>
        </mxCell>
        <mxCell id="TcbJo_jmiR2zdpB2woHX-334" style="edgeStyle=orthogonalEdgeStyle;rounded=0;orthogonalLoop=1;jettySize=auto;html=1;entryX=0;entryY=0.5;entryDx=0;entryDy=0;exitX=1;exitY=0.5;exitDx=0;exitDy=0;" edge="1" parent="1" source="TcbJo_jmiR2zdpB2woHX-283" target="TcbJo_jmiR2zdpB2woHX-311">
          <mxGeometry relative="1" as="geometry">
            <mxPoint x="1689" y="447.4000000000001" as="sourcePoint" />
            <Array as="points" />
          </mxGeometry>
        </mxCell>
        <mxCell id="TcbJo_jmiR2zdpB2woHX-342" value="&lt;font color=&quot;#ff3333&quot;&gt;&lt;span style=&quot;font-size: 13px;&quot;&gt;&lt;b&gt;&lt;i&gt;thnn&lt;/i&gt;&lt;/b&gt;&lt;/span&gt;&lt;/font&gt;" style="edgeLabel;html=1;align=center;verticalAlign=middle;resizable=0;points=[];" vertex="1" connectable="0" parent="TcbJo_jmiR2zdpB2woHX-334">
          <mxGeometry x="0.1587" y="3" relative="1" as="geometry">
            <mxPoint x="21" y="3" as="offset" />
          </mxGeometry>
        </mxCell>
        <mxCell id="TcbJo_jmiR2zdpB2woHX-351" style="edgeStyle=orthogonalEdgeStyle;rounded=0;orthogonalLoop=1;jettySize=auto;html=1;dashed=1;" edge="1" parent="1" source="TcbJo_jmiR2zdpB2woHX-283" target="TcbJo_jmiR2zdpB2woHX-300">
          <mxGeometry relative="1" as="geometry" />
        </mxCell>
        <mxCell id="TcbJo_jmiR2zdpB2woHX-283" value="&lt;font style=&quot;font-size: 14px;&quot;&gt;&lt;b&gt;is_thrive_contiguous&lt;/b&gt;&lt;/font&gt;" style="rounded=1;whiteSpace=wrap;html=1;fillColor=#fff2cc;strokeColor=#d6b656;" vertex="1" parent="1">
          <mxGeometry x="1393" y="418.79999999999995" width="152" height="58.6" as="geometry" />
        </mxCell>
        <mxCell id="TcbJo_jmiR2zdpB2woHX-284" style="edgeStyle=orthogonalEdgeStyle;rounded=0;orthogonalLoop=1;jettySize=auto;html=1;" edge="1" parent="1" source="TcbJo_jmiR2zdpB2woHX-314" target="TcbJo_jmiR2zdpB2woHX-283">
          <mxGeometry relative="1" as="geometry" />
        </mxCell>
        <mxCell id="TcbJo_jmiR2zdpB2woHX-285" value="" style="group" vertex="1" connectable="0" parent="1">
          <mxGeometry x="559" y="211" width="134" height="120" as="geometry" />
        </mxCell>
        <mxCell id="TcbJo_jmiR2zdpB2woHX-286" value="" style="rounded=0;whiteSpace=wrap;html=1;dashed=1;container=0;" vertex="1" parent="TcbJo_jmiR2zdpB2woHX-285">
          <mxGeometry width="134" height="120" as="geometry" />
        </mxCell>
        <mxCell id="TcbJo_jmiR2zdpB2woHX-287" value="SplitInfo 1" style="rounded=1;whiteSpace=wrap;html=1;fillColor=#ffe6cc;strokeColor=#d79b00;container=0;" vertex="1" parent="TcbJo_jmiR2zdpB2woHX-285">
          <mxGeometry x="16.5" y="43.5" width="101" height="23.5" as="geometry" />
        </mxCell>
        <mxCell id="TcbJo_jmiR2zdpB2woHX-288" value="&lt;b&gt;&lt;font style=&quot;font-size: 14px;&quot;&gt;Tensor a&lt;/font&gt;&lt;/b&gt;" style="text;html=1;align=center;verticalAlign=middle;whiteSpace=wrap;rounded=0;container=0;" vertex="1" parent="TcbJo_jmiR2zdpB2woHX-285">
          <mxGeometry x="10.5" y="4" width="60" height="30" as="geometry" />
        </mxCell>
        <mxCell id="TcbJo_jmiR2zdpB2woHX-289" value="ParallelInfo 1" style="rounded=1;whiteSpace=wrap;html=1;fillColor=#ffe6cc;strokeColor=#d79b00;container=0;" vertex="1" parent="TcbJo_jmiR2zdpB2woHX-285">
          <mxGeometry x="16.5" y="82" width="101" height="25" as="geometry" />
        </mxCell>
        <mxCell id="TcbJo_jmiR2zdpB2woHX-290" value="" style="group" vertex="1" connectable="0" parent="1">
          <mxGeometry x="1276" y="93" width="134" height="120" as="geometry" />
        </mxCell>
        <mxCell id="TcbJo_jmiR2zdpB2woHX-291" value="" style="rounded=0;whiteSpace=wrap;html=1;movable=1;resizable=1;rotatable=1;deletable=1;editable=1;locked=0;connectable=1;dashed=1;container=0;" vertex="1" parent="TcbJo_jmiR2zdpB2woHX-290">
          <mxGeometry width="134" height="120" as="geometry" />
        </mxCell>
        <mxCell id="TcbJo_jmiR2zdpB2woHX-292" value="SplitInfo 2" style="rounded=1;whiteSpace=wrap;html=1;fillColor=#d5e8d4;strokeColor=#82b366;container=0;" vertex="1" parent="TcbJo_jmiR2zdpB2woHX-290">
          <mxGeometry x="16.5" y="41.5" width="101" height="23.5" as="geometry" />
        </mxCell>
        <mxCell id="TcbJo_jmiR2zdpB2woHX-293" value="&lt;b&gt;&lt;font style=&quot;font-size: 14px;&quot;&gt;Tensor b&lt;/font&gt;&lt;/b&gt;" style="text;html=1;align=center;verticalAlign=middle;whiteSpace=wrap;rounded=0;container=0;" vertex="1" parent="TcbJo_jmiR2zdpB2woHX-290">
          <mxGeometry x="6" y="2" width="64.5" height="30" as="geometry" />
        </mxCell>
        <mxCell id="TcbJo_jmiR2zdpB2woHX-294" value="ParallelInfo 2" style="rounded=1;whiteSpace=wrap;html=1;fillColor=#d5e8d4;strokeColor=#82b366;container=0;" vertex="1" parent="TcbJo_jmiR2zdpB2woHX-290">
          <mxGeometry x="16.5" y="80" width="101" height="25" as="geometry" />
        </mxCell>
        <mxCell id="TcbJo_jmiR2zdpB2woHX-300" value="at::native::contiguous&lt;br&gt;+&lt;br&gt;parallelinfo == SplitInfo" style="ellipse;shape=cloud;whiteSpace=wrap;html=1;dashed=1;" vertex="1" parent="1">
          <mxGeometry x="1354.75" y="273" width="228.5" height="102" as="geometry" />
        </mxCell>
        <mxCell id="TcbJo_jmiR2zdpB2woHX-301" value="" style="ellipse;whiteSpace=wrap;html=1;" vertex="1" parent="1">
          <mxGeometry x="741" y="178.75" width="226" height="184.5" as="geometry" />
        </mxCell>
        <mxCell id="TcbJo_jmiR2zdpB2woHX-302" value="&lt;font style=&quot;font-size: 14px;&quot;&gt;&lt;b&gt;Tade Mode dispatch&lt;/b&gt;&lt;/font&gt;" style="text;html=1;align=center;verticalAlign=middle;whiteSpace=wrap;rounded=0;" vertex="1" parent="1">
          <mxGeometry x="784.5" y="197" width="139" height="30" as="geometry" />
        </mxCell>
        <mxCell id="TcbJo_jmiR2zdpB2woHX-303" value="ParallelInfo 2" style="rounded=1;whiteSpace=wrap;html=1;fillColor=#d5e8d4;strokeColor=#82b366;container=0;" vertex="1" parent="1">
          <mxGeometry x="806" y="269" width="101" height="25" as="geometry" />
        </mxCell>
        <mxCell id="TcbJo_jmiR2zdpB2woHX-304" value="SplitInfo 2" style="rounded=1;whiteSpace=wrap;html=1;fillColor=#d5e8d4;strokeColor=#82b366;container=0;" vertex="1" parent="1">
          <mxGeometry x="806" y="231" width="101" height="23.5" as="geometry" />
        </mxCell>
        <mxCell id="TcbJo_jmiR2zdpB2woHX-305" style="edgeStyle=orthogonalEdgeStyle;rounded=0;orthogonalLoop=1;jettySize=auto;html=1;dashed=1;dashPattern=8 8;entryX=1;entryY=0;entryDx=0;entryDy=0;" edge="1" parent="1" source="TcbJo_jmiR2zdpB2woHX-307" target="TcbJo_jmiR2zdpB2woHX-315">
          <mxGeometry relative="1" as="geometry">
            <mxPoint x="1345" y="381" as="targetPoint" />
          </mxGeometry>
        </mxCell>
        <mxCell id="TcbJo_jmiR2zdpB2woHX-306" value="&lt;font style=&quot;color: rgb(255, 51, 51); font-size: 13px;&quot;&gt;&lt;b&gt;消耗掉&lt;/b&gt;&lt;/font&gt;" style="edgeLabel;html=1;align=center;verticalAlign=middle;resizable=0;points=[];" vertex="1" connectable="0" parent="TcbJo_jmiR2zdpB2woHX-305">
          <mxGeometry x="-0.1681" y="-3" relative="1" as="geometry">
            <mxPoint x="1" y="-3" as="offset" />
          </mxGeometry>
        </mxCell>
        <mxCell id="TcbJo_jmiR2zdpB2woHX-307" value="MeshAllocInfosManager" style="rounded=1;whiteSpace=wrap;html=1;fillColor=#d5e8d4;strokeColor=#82b366;container=0;" vertex="1" parent="1">
          <mxGeometry x="786" y="309" width="136" height="25" as="geometry" />
        </mxCell>
        <mxCell id="TcbJo_jmiR2zdpB2woHX-308" style="edgeStyle=orthogonalEdgeStyle;rounded=0;orthogonalLoop=1;jettySize=auto;html=1;entryX=1;entryY=0;entryDx=0;entryDy=0;dashed=1;dashPattern=8 8;exitX=1;exitY=0.5;exitDx=0;exitDy=0;" edge="1" parent="1" source="TcbJo_jmiR2zdpB2woHX-303" target="TcbJo_jmiR2zdpB2woHX-315">
          <mxGeometry relative="1" as="geometry">
            <mxPoint x="929" y="286.0005882352941" as="sourcePoint" />
            <mxPoint x="1374.5860000000002" y="393.53" as="targetPoint" />
          </mxGeometry>
        </mxCell>
        <mxCell id="TcbJo_jmiR2zdpB2woHX-309" value="&lt;font style=&quot;color: rgb(255, 51, 51); font-size: 13px;&quot;&gt;&lt;b&gt;消耗掉&lt;/b&gt;&lt;/font&gt;" style="edgeLabel;html=1;align=center;verticalAlign=middle;resizable=0;points=[];" vertex="1" connectable="0" parent="TcbJo_jmiR2zdpB2woHX-308">
          <mxGeometry x="0.0536" relative="1" as="geometry">
            <mxPoint x="-3" y="-1" as="offset" />
          </mxGeometry>
        </mxCell>
        <mxCell id="TcbJo_jmiR2zdpB2woHX-331" value="" style="group" vertex="1" connectable="0" parent="1">
          <mxGeometry x="1740" y="388.0999999999999" width="134" height="120" as="geometry" />
        </mxCell>
        <mxCell id="TcbJo_jmiR2zdpB2woHX-311" value="" style="rounded=0;whiteSpace=wrap;html=1;movable=1;resizable=1;rotatable=1;deletable=1;editable=1;locked=0;connectable=1;dashed=1;container=0;" vertex="1" parent="TcbJo_jmiR2zdpB2woHX-331">
          <mxGeometry width="134" height="120" as="geometry" />
        </mxCell>
        <mxCell id="TcbJo_jmiR2zdpB2woHX-312" value="&lt;b&gt;&lt;font style=&quot;font-size: 14px;&quot;&gt;Tensor c&lt;/font&gt;&lt;/b&gt;" style="text;html=1;align=center;verticalAlign=middle;whiteSpace=wrap;rounded=0;container=0;" vertex="1" parent="TcbJo_jmiR2zdpB2woHX-331">
          <mxGeometry x="6" y="2" width="64.5" height="30" as="geometry" />
        </mxCell>
        <mxCell id="TcbJo_jmiR2zdpB2woHX-313" value="ParallelInfo 2" style="rounded=1;whiteSpace=wrap;html=1;fillColor=#d5e8d4;strokeColor=#82b366;container=0;" vertex="1" parent="TcbJo_jmiR2zdpB2woHX-331">
          <mxGeometry x="16.5" y="80" width="101" height="25" as="geometry" />
        </mxCell>
        <mxCell id="TcbJo_jmiR2zdpB2woHX-340" value="SplitInfo 2" style="rounded=1;whiteSpace=wrap;html=1;fillColor=#d5e8d4;strokeColor=#82b366;container=0;" vertex="1" parent="TcbJo_jmiR2zdpB2woHX-331">
          <mxGeometry x="16.5" y="41.60000000000002" width="101" height="23.5" as="geometry" />
        </mxCell>
        <mxCell id="TcbJo_jmiR2zdpB2woHX-349" value="" style="group" vertex="1" connectable="0" parent="1">
          <mxGeometry x="1216" y="387.4" width="134" height="120" as="geometry" />
        </mxCell>
        <mxCell id="TcbJo_jmiR2zdpB2woHX-314" value="" style="rounded=0;whiteSpace=wrap;html=1;movable=1;resizable=1;rotatable=1;deletable=1;editable=1;locked=0;connectable=1;dashed=1;container=0;" vertex="1" parent="TcbJo_jmiR2zdpB2woHX-349">
          <mxGeometry width="134" height="120" as="geometry" />
        </mxCell>
        <mxCell id="TcbJo_jmiR2zdpB2woHX-315" value="&lt;b&gt;&lt;font style=&quot;font-size: 14px;&quot;&gt;Tensor b&lt;/font&gt;&lt;/b&gt;" style="text;html=1;align=center;verticalAlign=middle;whiteSpace=wrap;rounded=0;container=0;" vertex="1" parent="TcbJo_jmiR2zdpB2woHX-349">
          <mxGeometry x="6" width="64.5" height="30" as="geometry" />
        </mxCell>
        <mxCell id="TcbJo_jmiR2zdpB2woHX-316" value="ParallelInfo 2" style="rounded=1;whiteSpace=wrap;html=1;fillColor=#d5e8d4;strokeColor=#82b366;container=0;" vertex="1" parent="TcbJo_jmiR2zdpB2woHX-349">
          <mxGeometry x="16.5" y="78" width="101" height="25" as="geometry" />
        </mxCell>
        <mxCell id="TcbJo_jmiR2zdpB2woHX-317" value="SplitInfo 1" style="rounded=1;whiteSpace=wrap;html=1;fillColor=#ffe6cc;strokeColor=#d79b00;container=0;" vertex="1" parent="TcbJo_jmiR2zdpB2woHX-349">
          <mxGeometry x="16.5" y="43" width="101" height="23.5" as="geometry" />
        </mxCell>
        <mxCell id="TcbJo_jmiR2zdpB2woHX-353" value="&lt;b style=&quot;color: rgb(51, 51, 51); font-size: 14px;&quot;&gt;ViewInferEngine&lt;/b&gt;" style="text;html=1;align=center;verticalAlign=middle;whiteSpace=wrap;rounded=0;" vertex="1" parent="1">
          <mxGeometry x="1636" y="217" width="60" height="30" as="geometry" />
        </mxCell>
      </root>
    </mxGraphModel>
  </diagram>
</mxfile>
